<svg width="50" height="50" viewBox="0 0 50 50" fill="none" xmlns="http://www.w3.org/2000/svg">
<path d="M12.529 18.0531C12.382 17.04 12.0678 15.834 11.6919 14.3911L10.5654 10.0661L10.5455 9.98983C12.0251 8.56368 13.7152 7.35477 15.5643 6.41431L18.9648 8.99341C20.1306 9.87762 21.1106 10.621 21.9783 11.1341C22.4327 11.4027 22.8902 11.6296 23.3675 11.7919V18.0876C23.111 18.2071 22.8652 18.3572 22.6354 18.5378L18.6098 21.7012C18.4596 21.8193 18.3203 21.9471 18.1922 22.0833L12.6127 19.6673C12.6464 19.1398 12.609 18.605 12.529 18.0531Z" fill="white"/>
<path d="M8.4273 21.2556C7.81273 21.7849 6.94746 22.3756 5.64644 23.2591L4.1799 24.2554C4.32884 20.0108 5.746 16.0894 8.06363 12.8591L8.64623 15.0958C9.0493 16.6432 9.31723 17.6807 9.43632 18.5017C9.54988 19.2846 9.50132 19.7149 9.37353 20.0613C9.24678 20.4049 9.00986 20.7536 8.4273 21.2556Z" fill="white"/>
<path d="M11.044 35.1773C12.491 35.1773 13.7109 35.1773 14.7075 35.2944C15.2331 35.3561 15.7351 35.4538 16.2138 35.6152L19.1632 31.7561C19.0557 31.5477 18.9663 31.3277 18.8972 31.0975L17.3161 25.8342C17.2377 25.5733 17.1881 25.3088 17.1659 25.0444L11.4855 22.5846C11.1891 22.9569 10.8459 23.2967 10.4671 23.6231C9.70032 24.2838 8.68416 24.9738 7.47478 25.7952L4.36761 27.9054C4.73139 30.5154 5.57816 32.9706 6.81459 35.1773H11.044Z" fill="white"/>
<path d="M24.5663 20.9948C24.679 20.9064 24.8061 20.8662 24.93 20.8662C25.054 20.8662 25.1811 20.9064 25.2938 20.9948L29.3194 24.1583C29.4267 24.2427 29.5083 24.3623 29.5511 24.5041C29.5923 24.6416 29.5942 24.7914 29.5511 24.935L27.9698 30.1985C27.9265 30.3433 27.8446 30.4583 27.7454 30.5385C27.6358 30.627 27.5069 30.6729 27.3744 30.6729H22.4856C22.3531 30.6729 22.2242 30.627 22.1146 30.5385C22.0154 30.4583 21.9336 30.3433 21.89 30.1985L20.309 24.935C20.2658 24.7914 20.2676 24.6416 20.3089 24.5041C20.3516 24.3623 20.4333 24.2427 20.5407 24.1583L24.5663 20.9948Z" fill="white"/>
<path d="M27.8662 11.1993C28.7448 10.7056 29.7404 9.98409 30.9242 9.12607L34.5508 6.49805C36.3523 7.43442 37.9998 8.6268 39.4452 10.027L38.3083 14.3913C37.9325 15.8342 37.6183 17.0402 37.4714 18.0533C37.3919 18.6023 37.3544 19.1343 37.3871 19.6591L31.674 22.09C31.5442 21.9513 31.4027 21.8213 31.2502 21.7013L27.2246 18.5378C26.9948 18.3573 26.749 18.2071 26.4925 18.0876V11.817C26.9627 11.6658 27.4156 11.4526 27.8662 11.1993Z" fill="white"/>
<path d="M23.5688 8.44404C22.8746 8.03361 22.0377 7.4019 20.7826 6.4499L18.9439 5.0554C20.8531 4.47738 22.8783 4.16663 24.976 4.16663C27.1273 4.16663 29.2023 4.49342 31.1542 5.10013L29.1625 6.54344C27.8875 7.46736 27.0377 8.08021 26.3352 8.47502C25.6675 8.85025 25.279 8.94148 24.9473 8.93779C24.6156 8.93413 24.2288 8.83419 23.5688 8.44404Z" fill="white"/>
<path d="M39.5333 23.6234C40.3 24.284 41.3163 24.974 42.5256 25.7955L45.5888 27.8759C45.2273 30.4969 44.3788 32.9623 43.1377 35.1773H39.2665C37.8194 35.1773 36.5996 35.1773 35.6029 35.2944C35.0554 35.3586 34.5336 35.4619 34.0369 35.6359L30.7252 31.6998C30.82 31.5084 30.8998 31.3071 30.9627 31.0975L32.544 25.8342C32.6215 25.5761 32.6708 25.314 32.6933 25.0523L38.5092 22.5778C38.8069 22.953 39.1521 23.2948 39.5333 23.6234Z" fill="white"/>
<path d="M30.8508 38.8053C30.4306 39.7348 30.0467 40.9196 29.5877 42.3361L28.5537 45.5267C27.3914 45.7284 26.196 45.8334 24.976 45.8334C23.8881 45.8334 22.8196 45.7498 21.7767 45.5886L20.7227 42.3361C20.2638 40.9196 19.8799 39.7348 19.4595 38.8053C19.2448 38.3307 19.0061 37.8878 18.7187 37.484L21.6152 33.694C21.8954 33.7621 22.1871 33.798 22.4856 33.798H27.3744C27.6946 33.798 28.0071 33.7565 28.306 33.6786L31.5535 37.5382C31.2831 37.9271 31.056 38.3517 30.8508 38.8053Z" fill="white"/>
<path d="M17.7766 43.3816C17.284 41.8614 16.9521 40.8443 16.6122 40.0929C16.2876 39.3752 16.0203 39.0527 15.7405 38.8452C15.4644 38.6406 15.0932 38.486 14.343 38.3979C13.5501 38.3047 12.5148 38.3022 10.9546 38.3022H8.96039C11.3728 41.2104 14.5603 43.4506 18.2057 44.7058L17.7766 43.3816Z" fill="white"/>
<path d="M35.9675 38.3979C36.7604 38.3047 37.7956 38.3022 39.3558 38.3022H40.9919C38.6692 41.102 35.6279 43.2831 32.1515 44.5616L32.534 43.3816C33.0265 41.8614 33.3583 40.8443 33.6983 40.0929C34.0229 39.3752 34.2902 39.0527 34.57 38.8452C34.846 38.6406 35.2173 38.486 35.9675 38.3979Z" fill="white"/>
<path d="M40.5639 18.502C40.6831 17.681 40.951 16.6435 41.3542 15.0961L41.9239 12.9086C44.2146 16.1209 45.6169 20.012 45.7712 24.2221L44.3539 23.2594C43.0529 22.3759 42.1877 21.7852 41.5731 21.2559C40.9904 20.7539 40.7535 20.4052 40.6269 20.0616C40.4989 19.7152 40.4504 19.2849 40.5639 18.502Z" fill="white"/>
</svg>
