<svg width="21" height="20" viewBox="0 0 21 20" fill="none" xmlns="http://www.w3.org/2000/svg">
<path d="M1 6C1 4.34315 2.34315 3 4 3H17C18.6569 3 20 4.34315 20 6V14C20 15.6569 18.6569 17 17 17H4C2.34315 17 1 15.6569 1 14V6Z" fill="#737373"/>
<path d="M17 7H20V13H17L16.5 10L17 7ZM1 7H4L4.5 10L4 13H1V7Z" fill="#737373"/>
<path d="M17.6914 3H3.30855C2.03446 3.00221 1.00215 4.05978 1 5.3649V14.6349C1.00215 15.9402 2.03444 16.9978 3.30836 17H17.6915C18.9655 16.9978 19.9978 15.9402 20 14.6351V5.369C20 4.06202 18.9669 3.00222 17.6916 3.00003L17.6914 3ZM10.0975 11.908C9.22383 11.7215 8.57684 10.9391 8.57684 10.0019C8.57684 9.06475 9.22385 8.28239 10.0852 8.09806L10.0975 11.908ZM10.8569 8.09585C11.7306 8.28239 12.3776 9.06475 12.3776 10.0019C12.3776 10.9391 11.7306 11.7215 10.8692 11.9058L10.8569 8.09587V8.09585ZM1.7442 7.27896H3.38448C3.76404 7.27896 4.07172 7.59417 4.07172 7.98303V12.0247C4.07172 12.4136 3.76404 12.7288 3.38448 12.7288H1.7442V7.28282V7.27896ZM1.7442 14.6388V13.5029H3.38448C4.18343 13.5029 4.83112 12.8393 4.83112 12.0208V7.99471C4.83112 7.17619 4.18343 6.51263 3.38448 6.51263H1.7442V5.37675C1.74635 4.5011 2.43866 3.79185 3.29316 3.78964H10.0975V7.32174C8.81204 7.52818 7.84031 8.65463 7.84031 10.0136C7.84031 11.3726 8.81204 12.499 10.0825 12.7035L10.0975 16.2376H3.30853C3.30515 16.2376 3.30113 16.2376 3.29711 16.2376C2.43943 16.2376 1.74416 15.5253 1.74416 14.6466C1.74416 14.6439 1.74418 14.6411 1.7442 14.6384V14.6388ZM17.6914 16.2259H10.8569V12.6938C12.1424 12.4874 13.1141 11.3609 13.1141 10.0019C13.1141 8.64296 12.1424 7.5165 10.8719 7.31205L10.8569 3.77798H17.6914C18.5461 3.78018 19.2384 4.48943 19.2406 5.36488V6.50096H17.6914C16.8925 6.50096 16.2448 7.16452 16.2448 7.98304V12.0247C16.2448 12.8432 16.8924 13.5068 17.6914 13.5068H19.2102V14.6427C19.2062 15.5059 18.5317 16.2064 17.6931 16.2259H17.6914ZM19.2406 7.27896V12.7249H17.6914C17.3119 12.7249 17.0042 12.4097 17.0042 12.0208V7.99473C17.0042 7.60587 17.3119 7.29066 17.6914 7.29066H19.2102L19.2406 7.27896Z" fill="#FBFBFB"/>
</svg>
