<svg width="21" height="20" viewBox="0 0 21 20" fill="none" xmlns="http://www.w3.org/2000/svg">
<path fill-rule="evenodd" clip-rule="evenodd" d="M12.149 1.79349C11.8404 1.66663 11.4492 1.66663 10.6667 1.66663C9.88416 1.66663 9.49291 1.66663 9.18433 1.79349C8.77283 1.96265 8.44591 2.28711 8.27546 2.69548C8.19766 2.88191 8.16721 3.09871 8.15529 3.41495C8.13778 3.87969 7.89763 4.30987 7.49181 4.5424C7.08598 4.77493 6.59053 4.76624 6.17624 4.54893C5.89431 4.40104 5.68991 4.31881 5.48832 4.29248C5.04674 4.23478 4.60015 4.35353 4.2468 4.62263C3.98178 4.82444 3.78616 5.16071 3.39491 5.83323C3.00367 6.50577 2.80806 6.84203 2.76446 7.17072C2.70631 7.60896 2.82598 8.05218 3.09712 8.40288C3.22088 8.56296 3.39481 8.69746 3.66475 8.86579C4.06159 9.11329 4.31693 9.53488 4.31691 9.99996C4.31688 10.465 4.06155 10.8865 3.66475 11.134C3.39476 11.3024 3.22081 11.437 3.09704 11.597C2.8259 11.9477 2.70624 12.3909 2.76437 12.8291C2.80797 13.1578 3.0036 13.4941 3.39483 14.1666C3.78607 14.8391 3.9817 15.1755 4.24671 15.3772C4.60006 15.6463 5.04666 15.765 5.48824 15.7074C5.68981 15.681 5.89421 15.5988 6.17611 15.451C6.59043 15.2336 7.08591 15.225 7.49176 15.4575C7.89761 15.69 8.13777 16.1202 8.15529 16.585C8.16721 16.9012 8.19766 17.118 8.27546 17.3045C8.44591 17.7128 8.77283 18.0373 9.18433 18.2065C9.49291 18.3333 9.88416 18.3333 10.6667 18.3333C11.4492 18.3333 11.8404 18.3333 12.149 18.2065C12.5605 18.0373 12.8874 17.7128 13.0578 17.3045C13.1357 17.118 13.1662 16.9012 13.1781 16.585C13.1956 16.1202 13.4357 15.69 13.8415 15.4575C14.2473 15.2249 14.7428 15.2336 15.1572 15.451C15.4391 15.5988 15.6434 15.681 15.845 15.7073C16.2866 15.765 16.7332 15.6463 17.0865 15.3772C17.3516 15.1754 17.5472 14.8391 17.9384 14.1665C18.3297 13.494 18.5252 13.1578 18.5689 12.8291C18.627 12.3909 18.5073 11.9476 18.2362 11.597C18.1124 11.4369 17.9385 11.3023 17.6685 11.134C17.2717 10.8865 17.0164 10.465 17.0164 9.99988C17.0164 9.53479 17.2717 9.11338 17.6685 8.86596C17.9386 8.69754 18.1125 8.56304 18.2363 8.40288C18.5074 8.05223 18.6271 7.60902 18.569 7.17077C18.5253 6.84208 18.3297 6.50582 17.9385 5.83329C17.5472 5.16077 17.3517 4.8245 17.0866 4.62268C16.7332 4.35359 16.2867 4.23483 15.8451 4.29253C15.6435 4.31887 15.4391 4.40109 15.1572 4.54896C14.7429 4.76628 14.2474 4.77498 13.8416 4.54243C13.4357 4.30988 13.1956 3.87968 13.178 3.41491C13.1661 3.09869 13.1357 2.8819 13.0578 2.69548C12.8874 2.28711 12.5605 1.96265 12.149 1.79349ZM10.6667 12.5C12.0579 12.5 13.1857 11.3807 13.1857 9.99996C13.1857 8.61921 12.0579 7.49996 10.6667 7.49996C9.27541 7.49996 8.14763 8.61921 8.14763 9.99996C8.14763 11.3807 9.27541 12.5 10.6667 12.5Z" fill="#737373"/>
</svg>
