<svg width="21" height="20" viewBox="0 0 21 20" fill="none" xmlns="http://www.w3.org/2000/svg">
<path d="M7.20833 2.08325C7.20833 1.73808 6.9285 1.45825 6.58333 1.45825C6.23815 1.45825 5.95833 1.73808 5.95833 2.08325V3.3993C4.75889 3.49534 3.97147 3.73106 3.39297 4.30956C2.81447 4.88806 2.57875 5.67548 2.48271 6.87492H19.0172C18.9212 5.67548 18.6855 4.88806 18.107 4.30956C17.5285 3.73106 16.7411 3.49534 15.5417 3.3993V2.08325C15.5417 1.73808 15.2618 1.45825 14.9167 1.45825C14.5715 1.45825 14.2917 1.73808 14.2917 2.08325V3.344C13.7372 3.33325 13.1158 3.33325 12.4167 3.33325H9.08333C8.38414 3.33325 7.76272 3.33325 7.20833 3.344V2.08325Z" fill="#737373"/>
<path fill-rule="evenodd" clip-rule="evenodd" d="M2.41667 10C2.41667 9.30083 2.41667 8.67942 2.42742 8.125H19.0726C19.0833 8.67942 19.0833 9.30083 19.0833 10V11.6667C19.0833 14.8093 19.0833 16.3807 18.107 17.357C17.1308 18.3333 15.5593 18.3333 12.4167 18.3333H9.08334C5.94064 18.3333 4.3693 18.3333 3.39298 17.357C2.41667 16.3807 2.41667 14.8093 2.41667 11.6667V10ZM14.9167 11.6667C15.3769 11.6667 15.75 11.2936 15.75 10.8333C15.75 10.3731 15.3769 10 14.9167 10C14.4564 10 14.0833 10.3731 14.0833 10.8333C14.0833 11.2936 14.4564 11.6667 14.9167 11.6667ZM14.9167 15C15.3769 15 15.75 14.6269 15.75 14.1667C15.75 13.7064 15.3769 13.3333 14.9167 13.3333C14.4564 13.3333 14.0833 13.7064 14.0833 14.1667C14.0833 14.6269 14.4564 15 14.9167 15ZM11.5833 10.8333C11.5833 11.2936 11.2103 11.6667 10.75 11.6667C10.2898 11.6667 9.91667 11.2936 9.91667 10.8333C9.91667 10.3731 10.2898 10 10.75 10C11.2103 10 11.5833 10.3731 11.5833 10.8333ZM11.5833 14.1667C11.5833 14.6269 11.2103 15 10.75 15C10.2898 15 9.91667 14.6269 9.91667 14.1667C9.91667 13.7064 10.2898 13.3333 10.75 13.3333C11.2103 13.3333 11.5833 13.7064 11.5833 14.1667ZM6.58334 11.6667C7.04357 11.6667 7.41667 11.2936 7.41667 10.8333C7.41667 10.3731 7.04357 10 6.58334 10C6.1231 10 5.75 10.3731 5.75 10.8333C5.75 11.2936 6.1231 11.6667 6.58334 11.6667ZM6.58334 15C7.04357 15 7.41667 14.6269 7.41667 14.1667C7.41667 13.7064 7.04357 13.3333 6.58334 13.3333C6.1231 13.3333 5.75 13.7064 5.75 14.1667C5.75 14.6269 6.1231 15 6.58334 15Z" fill="#737373"/>
</svg>
