<svg width="21" height="20" viewBox="0 0 21 20" fill="none" xmlns="http://www.w3.org/2000/svg">
<path d="M5.26158 7.22119C5.2028 6.81593 5.07713 6.33353 4.92678 5.75638L4.47614 4.02637L4.4682 3.99588C5.06006 3.42542 5.73607 2.94186 6.47573 2.56567L7.83593 3.59732C8.30223 3.951 8.69425 4.24836 9.04133 4.45357C9.22308 4.56102 9.40608 4.65179 9.597 4.71672V7.23498C9.49442 7.28277 9.39608 7.34284 9.30417 7.41506L7.69391 8.68044C7.63383 8.72769 7.57811 8.77877 7.52688 8.83327L5.29508 7.86687C5.30858 7.65588 5.2936 7.44196 5.26158 7.22119Z" fill="#737373"/>
<path d="M3.62092 8.50213C3.37509 8.71388 3.02898 8.95013 2.50858 9.30355L1.92196 9.70205C1.98153 8.00424 2.5484 6.43566 3.47545 5.14355L3.70849 6.03822C3.86972 6.65718 3.97689 7.0722 4.02453 7.40057C4.06995 7.71373 4.05053 7.88587 3.99941 8.02442C3.94871 8.16185 3.85394 8.30133 3.62092 8.50213Z" fill="#737373"/>
<path d="M4.66759 14.071C5.24641 14.071 5.73437 14.071 6.133 14.1179C6.34324 14.1425 6.54403 14.1816 6.73553 14.2462L7.91527 12.7025C7.87229 12.6192 7.83654 12.5312 7.80889 12.4391L7.17643 10.3338C7.14509 10.2294 7.12524 10.1236 7.11635 10.0179L4.84421 9.03394C4.72563 9.18285 4.58835 9.31877 4.43683 9.44935C4.13013 9.7136 3.72366 9.9896 3.23991 10.3182L1.99704 11.1623C2.14255 12.2063 2.48126 13.1884 2.97584 14.071H4.66759Z" fill="#737373"/>
<path d="M10.0765 8.39785C10.1216 8.36252 10.1724 8.34644 10.222 8.34644C10.2716 8.34644 10.3224 8.36252 10.3675 8.39785L11.9778 9.66327C12.0207 9.69702 12.0533 9.74485 12.0704 9.8016C12.0869 9.8566 12.0877 9.91652 12.0704 9.97393L11.4379 12.0794C11.4206 12.1373 11.3878 12.1833 11.3482 12.2154C11.3043 12.2508 11.2528 12.2691 11.1998 12.2691H9.24425C9.19125 12.2691 9.13967 12.2508 9.09583 12.2154C9.05617 12.1833 9.02342 12.1373 9.006 12.0794L8.37358 9.97393C8.35633 9.91652 8.35705 9.8566 8.37357 9.8016C8.39063 9.74485 8.42333 9.69702 8.46627 9.66327L10.0765 8.39785Z" fill="#737373"/>
<path d="M11.3965 4.47962C11.7479 4.28214 12.1462 3.99354 12.6197 3.65033L14.0703 2.59912C14.7909 2.97367 15.4499 3.45062 16.0281 4.01072L15.5733 5.75644C15.423 6.33359 15.2973 6.81598 15.2386 7.22124C15.2067 7.44082 15.1918 7.65364 15.2048 7.86353L12.9196 8.8359C12.8677 8.7804 12.8111 8.7284 12.7501 8.6804L11.1398 7.41502C11.0479 7.3428 10.9496 7.28274 10.847 7.23495V4.7267C11.0351 4.66622 11.2163 4.58095 11.3965 4.47962Z" fill="#737373"/>
<path d="M9.6775 3.37771C9.39983 3.21354 9.06508 2.96086 8.56303 2.58006L7.82758 2.02226C8.59125 1.79105 9.40133 1.66675 10.2404 1.66675C11.1009 1.66675 11.9309 1.79746 12.7117 2.04015L11.915 2.61747C11.405 2.98704 11.0651 3.23218 10.7841 3.39011C10.517 3.5402 10.3616 3.57669 10.2289 3.57521C10.0963 3.57375 9.9415 3.53377 9.6775 3.37771Z" fill="#737373"/>
<path d="M16.0633 9.44926C16.37 9.71351 16.7765 9.98951 17.2603 10.3181L18.4855 11.1503C18.3409 12.1987 18.0015 13.1848 17.5051 14.0708H15.9566C15.3778 14.0708 14.8898 14.0708 14.4912 14.1177C14.2722 14.1433 14.0634 14.1847 13.8648 14.2543L12.5401 12.6798C12.578 12.6033 12.6099 12.5228 12.6351 12.4389L13.2676 10.3336C13.2986 10.2303 13.3183 10.1255 13.3273 10.0208L15.6537 9.03101C15.7728 9.18109 15.9108 9.31784 16.0633 9.44926Z" fill="#737373"/>
<path d="M12.5903 15.5221C12.4223 15.8939 12.2687 16.3679 12.0851 16.9344L11.6715 18.2107C11.2066 18.2914 10.7284 18.3334 10.2404 18.3334C9.80525 18.3334 9.37783 18.2999 8.96067 18.2354L8.53909 16.9344C8.35552 16.3679 8.20195 15.8939 8.0338 15.5221C7.94794 15.3323 7.85245 15.1551 7.73749 14.9936L8.89608 13.4776C9.00817 13.5049 9.12483 13.5192 9.24425 13.5192H11.1997C11.3278 13.5192 11.4528 13.5026 11.5724 13.4714L12.8714 15.0153C12.7633 15.1709 12.6724 15.3407 12.5903 15.5221Z" fill="#737373"/>
<path d="M7.36063 17.3526C7.16359 16.7445 7.03082 16.3376 6.89486 16.0371C6.76505 15.75 6.65812 15.621 6.54621 15.538C6.43577 15.4561 6.28729 15.3943 5.98719 15.3591C5.67004 15.3218 5.25594 15.3208 4.63183 15.3208H3.83415C4.79912 16.4841 6.07414 17.3801 7.53227 17.8822L7.36063 17.3526Z" fill="#737373"/>
<path d="M14.637 15.3591C14.9542 15.3218 15.3683 15.3208 15.9923 15.3208H16.6468C15.7177 16.4407 14.5012 17.3131 13.1106 17.8246L13.2636 17.3526C13.4606 16.7445 13.5933 16.3376 13.7293 16.0371C13.8592 15.75 13.9661 15.621 14.078 15.538C14.1884 15.4561 14.3369 15.3943 14.637 15.3591Z" fill="#737373"/>
<path d="M16.4756 7.40069C16.5232 7.07231 16.6304 6.6573 16.7917 6.03834L17.0196 5.16333C17.9358 6.44828 18.4967 8.00471 18.5585 9.68875L17.9916 9.30366C17.4712 8.95025 17.1251 8.714 16.8792 8.50225C16.6462 8.30145 16.5514 8.16196 16.5007 8.02454C16.4496 7.88599 16.4302 7.71385 16.4756 7.40069Z" fill="#737373"/>
</svg>
